<?xml version="1.0" encoding="UTF-8"?>
<!-- Generator: Adobe Illustrator 23.0.0, SVG Export Plug-In  -->
<svg xmlns="http://www.w3.org/2000/svg" xmlns:xlink="http://www.w3.org/1999/xlink" x="0px" y="0px" width="109.4px" height="62.1px" viewBox="0 0 109.4 62.1" style="enable-background:new 0 0 109.4 62.1;" xml:space="preserve">
<style type="text/css">
	.st0{fill:#FFFFFF;}
</style>
<defs>
</defs>
<g>
	<path class="st0" d="M109.4,62.1c-36.5,0-72.9,0-109.4,0C0,41.4,0,20.7,0,0c36.5,0,72.9,0,109.4,0   C109.4,20.7,109.4,41.4,109.4,62.1z M24.9,31.9c-0.1,0-0.1,0-0.2,0c-0.1-0.2-0.1-0.4-0.2-0.6c-0.4-1.2-0.8-2.4-1.3-3.7   c-0.7-1.9-1.4-3.7-2-5.6c-0.2-0.7-0.5-1-1.3-0.9c-0.4,0.1-0.9,0.1-1.3,0c-0.7-0.1-0.8,0.2-0.8,0.8c0,6,0,12,0,18c0,0.2,0,0.5,0,0.8   c0.9-0.1,1.7-0.2,2.5-0.3c0.6,0,0.7-0.3,0.7-0.8c0-2.9,0-5.9,0-8.8c0-0.2,0-0.4,0.1-0.6c0.5,1.2,0.9,2.2,1.2,3.2   c0.7,2,1.4,4.1,2.1,6.1c0.1,0.2,0.3,0.4,0.4,0.4c0.9-0.1,1.8-0.2,2.6-0.3c0.4-0.1,0.5-0.3,0.5-0.7c0-5.7,0-11.5,0-17.2   c0-0.4-0.1-0.6-0.6-0.6c-0.6,0-1.3,0-1.9,0c-0.5,0-0.6,0.2-0.6,0.6c0,2.7,0,5.3,0,8C24.9,30.5,24.9,31.2,24.9,31.9z M80.6,21.2   c0.2,0.6,0.4,1.1,0.6,1.6c0.9,2.4,1.9,4.8,2.9,7.3c0.1,0.2,0.1,0.5,0,0.6c-1,2.3-1.9,4.5-2.9,6.7c-0.3,0.6-0.6,1.3-0.9,1.9   c1.2,0.2,2.2,0.3,3.2,0.5c0.8-1.7,1.5-3.4,2.3-5c0.1,0.1,0.2,0.1,0.2,0.2c0.6,1.6,1.2,3.2,1.9,4.8c0.1,0.2,0.3,0.6,0.4,0.6   c1.1,0.2,2.2,0.3,3.4,0.4c-0.6-1.5-1.1-3-1.7-4.4c-0.7-1.7-1.3-3.4-2-5c-0.3-0.7-0.2-1.4,0.1-2.1c0.5-1,0.9-2,1.4-3   c0.4-0.9,0.8-1.7,1.2-2.6c0.3-0.8,0.7-1.6,1-2.5c-1,0-1.9,0-2.8,0c-0.5,0-0.7,0.2-0.9,0.6c-0.4,1.1-0.9,2.2-1.3,3.3   c-0.2,0.4-0.4,0.7-0.6,1.2c-0.6-1.5-1.1-3-1.7-4.4c-0.1-0.3-0.4-0.6-0.6-0.6C82.7,21.2,81.7,21.2,80.6,21.2z M34.1,24.3   c0.3,0,0.6,0,0.8,0c1.4,0,2.7,0,4.1,0c0.4,0,0.6-0.1,0.6-0.6c0-0.7,0-1.3,0-2c0-0.5-0.2-0.6-0.6-0.6c-2.5,0-5,0-7.5,0   c-0.5,0-0.6,0.2-0.6,0.7c0,1.3,0,2.6,0,4c0,4.2,0,8.5,0,12.7c0,0.4-0.1,0.8,0.6,0.7c2.6-0.2,5.2-0.4,7.8-0.6c0.1,0,0.4-0.2,0.4-0.3   c0-0.9,0-1.8,0-2.7c-1.9,0.1-3.7,0.2-5.5,0.3c0-1.5,0-3,0-4.5c0.3,0,0.5,0,0.7,0c1,0,1.9,0,2.9,0c0.4,0,0.6-0.1,0.6-0.5   c0-0.6,0-1.2,0-1.8c0.1-0.6-0.1-0.9-0.8-0.9c-0.9,0.1-1.9,0-2.8,0c-0.2,0-0.5-0.2-0.5-0.3C34.1,26.8,34.1,25.6,34.1,24.3z    M53.2,38.3c0.9,0,1.7,0,2.5,0c0.5,0,0.7-0.2,0.6-0.7c0-1.8,0-3.6,0-5.4c0-0.9,0-0.9,0.9-0.9c0.9,0,1.8,0,2.7,0   c0.4,0,0.6-0.1,0.6-0.5c0-0.7,0-1.4,0-2c0-0.4-0.2-0.6-0.6-0.6c-1,0-2,0-3.1,0c-0.4,0-0.6-0.1-0.6-0.6c0-0.8,0-1.7,0-2.5   c0-0.6,0.1-0.8,0.8-0.8c1.4,0,2.8,0,4.2,0c0.4,0,0.6-0.1,0.6-0.6c0-0.6,0-1.2,0-1.8c0-0.6-0.2-0.7-0.7-0.7c-2.5,0-5,0-7.5,0   c-0.2,0-0.3,0-0.5,0.1C53.2,26.9,53.2,32.6,53.2,38.3z M51.2,24.3c0-1.1,0-2.1,0-3c-3.2,0-6.4,0-9.6,0c0,1,0,2,0,3   c0.8,0,1.6,0,2.4,0c0.9,0,0.9,0,0.9,0.9c0,4.2,0,8.4,0,12.6c0,0.5,0.1,0.7,0.7,0.7c0.5-0.1,1-0.1,1.6-0.1c0.7,0,0.9-0.2,0.9-0.9   c0-4.1,0-8.2,0-12.4c0-0.7,0.2-0.9,0.8-0.8C49.6,24.3,50.4,24.3,51.2,24.3z M72.2,38.8c0-0.7,0-1.4,0-2.2c0.1-0.7-0.2-1-0.9-1   c-1.2,0-2.4-0.1-3.6-0.1c-0.6,0-0.8-0.2-0.8-0.8c0-4.2,0-8.5,0-12.7c0-0.3,0-0.5,0-0.8c-0.8,0-1.6,0-2.3,0c-0.6,0-0.9,0.1-0.8,0.8   c0,2.7,0,5.4,0,8.1c0,2.5,0,5.1,0,7.6c0,0.5,0.2,0.7,0.7,0.7c0.6,0,1.2,0,1.8,0.1C68.2,38.6,70.2,38.7,72.2,38.8z M74.9,21.2   c0,0.1-0.1,0.1-0.1,0.2c0,5.7,0,11.5,0,17.2c0,0.4,0.2,0.5,0.5,0.5c0.6,0,1.1,0,1.7,0.1c0.6,0.1,0.8-0.1,0.8-0.7   c0-5.5,0-11.1,0-16.6c0-0.2,0-0.4,0-0.7C76.8,21.2,75.9,21.2,74.9,21.2z"></path>
	<path d="M24.9,31.9c0-0.7,0-1.4,0-2.1c0-2.7,0-5.3,0-8c0-0.5,0.1-0.7,0.6-0.6c0.6,0,1.3,0,1.9,0c0.4,0,0.6,0.2,0.6,0.6   c0,5.7,0,11.5,0,17.2c0,0.4-0.1,0.6-0.5,0.7c-0.9,0.1-1.8,0.3-2.6,0.3c-0.1,0-0.4-0.2-0.4-0.4c-0.7-2-1.4-4.1-2.1-6.1   c-0.4-1-0.8-2-1.2-3.2c0,0.3-0.1,0.5-0.1,0.6c0,2.9,0,5.9,0,8.8c0,0.5-0.1,0.8-0.7,0.8c-0.8,0.1-1.6,0.2-2.5,0.3c0-0.3,0-0.5,0-0.8   c0-6,0-12,0-18c0-0.7,0.2-0.9,0.8-0.8c0.4,0.1,0.9,0.1,1.3,0c0.7-0.1,1,0.2,1.3,0.9c0.6,1.9,1.3,3.7,2,5.6c0.4,1.2,0.9,2.4,1.3,3.7   c0.1,0.2,0.1,0.4,0.2,0.6C24.8,31.9,24.8,31.9,24.9,31.9z"></path>
	<path d="M80.6,21.2c1,0,2,0,3,0c0.2,0,0.4,0.4,0.6,0.6c0.6,1.4,1.1,2.9,1.7,4.4c0.2-0.4,0.4-0.8,0.6-1.2c0.5-1.1,0.9-2.2,1.3-3.3   c0.2-0.4,0.4-0.6,0.9-0.6c0.9,0,1.8,0,2.8,0c-0.4,0.9-0.7,1.7-1,2.5c-0.4,0.9-0.8,1.7-1.2,2.6c-0.5,1-0.9,2-1.4,3   c-0.3,0.7-0.5,1.3-0.1,2.1c0.7,1.7,1.4,3.4,2,5c0.6,1.4,1.1,2.9,1.7,4.4c-1.2-0.1-2.3-0.2-3.4-0.4c-0.2,0-0.3-0.4-0.4-0.6   c-0.6-1.6-1.2-3.2-1.9-4.8c0,0-0.1-0.1-0.2-0.2c-0.7,1.7-1.5,3.3-2.3,5c-1-0.2-2.1-0.3-3.2-0.5c0.3-0.7,0.6-1.3,0.9-1.9   c1-2.2,2-4.5,2.9-6.7c0.1-0.2,0.1-0.5,0-0.6c-0.9-2.4-1.9-4.9-2.9-7.3C81,22.3,80.8,21.8,80.6,21.2z"></path>
	<path d="M34.1,24.3c0,1.3,0,2.5,0,3.7c0,0.1,0.3,0.3,0.5,0.3c0.9,0,1.9,0,2.8,0c0.7,0,0.9,0.2,0.8,0.9c0,0.6,0,1.2,0,1.8   c0,0.4-0.2,0.6-0.6,0.5c-1,0-1.9,0-2.9,0c-0.2,0-0.4,0-0.7,0c0,1.5,0,2.9,0,4.5c1.8-0.1,3.6-0.2,5.5-0.3c0,1,0,1.9,0,2.7   c0,0.1-0.2,0.3-0.4,0.3c-2.6,0.2-5.2,0.4-7.8,0.6c-0.6,0.1-0.6-0.4-0.6-0.7c0-4.2,0-8.5,0-12.7c0-1.3,0-2.6,0-4   c0-0.5,0.1-0.7,0.6-0.7c2.5,0,5,0,7.5,0c0.4,0,0.6,0.1,0.6,0.6c0,0.7,0,1.3,0,2c0,0.5-0.2,0.6-0.6,0.6c-1.4,0-2.7,0-4.1,0   C34.7,24.3,34.5,24.3,34.1,24.3z"></path>
	<path d="M53.2,38.3c0-5.7,0-11.3,0-17c0.2,0,0.4-0.1,0.5-0.1c2.5,0,5,0,7.5,0c0.5,0,0.7,0.1,0.7,0.7c0,0.6,0,1.2,0,1.8   c0,0.5-0.2,0.6-0.6,0.6c-1.4,0-2.8,0-4.2,0c-0.7,0-0.8,0.2-0.8,0.8c0,0.8,0,1.7,0,2.5c0,0.4,0.1,0.6,0.6,0.6c1,0,2,0,3.1,0   c0.4,0,0.6,0.1,0.6,0.6c0,0.7,0,1.4,0,2c0,0.4-0.2,0.5-0.6,0.5c-0.9,0-1.8,0-2.7,0c-0.9,0-0.9,0-0.9,0.9c0,1.8,0,3.6,0,5.4   c0,0.5-0.1,0.7-0.6,0.7C54.9,38.2,54,38.3,53.2,38.3z"></path>
	<path d="M51.2,24.3c-0.8,0-1.6,0-2.4,0c-0.6,0-0.9,0.1-0.8,0.8c0,4.1,0,8.2,0,12.4c0,0.7-0.2,0.9-0.9,0.9c-0.5,0-1.1,0-1.6,0.1   c-0.6,0.1-0.7-0.1-0.7-0.7c0-4.2,0-8.4,0-12.6c0-0.9,0-0.9-0.9-0.9c-0.8,0-1.5,0-2.4,0c0-1,0-2,0-3c3.2,0,6.4,0,9.6,0   C51.2,22.2,51.2,23.2,51.2,24.3z"></path>
	<path d="M72.2,38.8c-2.1-0.1-4-0.2-6-0.3c-0.6,0-1.2-0.1-1.8-0.1c-0.5,0-0.7-0.2-0.7-0.7c0-2.5,0-5.1,0-7.6c0-2.7,0-5.4,0-8.1   c0-0.7,0.2-0.9,0.8-0.8c0.7,0.1,1.5,0,2.3,0c0,0.3,0,0.6,0,0.8c0,4.2,0,8.5,0,12.7c0,0.6,0.1,0.8,0.8,0.8c1.2,0,2.4,0.1,3.6,0.1   c0.7,0,0.9,0.3,0.9,1C72.2,37.4,72.2,38.1,72.2,38.8z"></path>
	<path d="M74.9,21.2c1,0,1.9,0,2.9,0c0,0.2,0,0.4,0,0.7c0,5.5,0,11.1,0,16.6c0,0.7-0.2,0.8-0.8,0.7c-0.6-0.1-1.1-0.1-1.7-0.1   c-0.4,0-0.5-0.1-0.5-0.5c0-5.7,0-11.5,0-17.2C74.9,21.4,74.9,21.3,74.9,21.2z"></path>
</g>
</svg>
