<svg version="1.1" xmlns="http://www.w3.org/2000/svg" xmlns:xlink="http://www.w3.org/1999/xlink" x="0px" y="0px" width="330.5px"
	 height="82.5px" viewBox="0 0 330.5 82.5" style="enable-background:new 0 0 330.5 82.5;" xml:space="preserve">
<style type="text/css">
	.st0{fill:#FFFFFF;}
</style>
<defs>
</defs>
<g>
	<path class="st0" d="M30.9,32L7.1,81.8h12.8l1.8-4.2h18.4l1.9,4.2h13.5L31.8,32C31.6,31.5,31.2,31.5,30.9,32z M25.9,67.8l4.9-11.4
		l5,11.4H25.9z"/>
	<path class="st0" d="M130.4,62.7c0,5.5-2.6,8.7-8.1,8.7c-5.5,0-8.1-3.2-8.1-8.7V32.8H101v30c0,13.2,9,19.7,21.2,19.7
		c12.2,0,21.2-6.5,21.2-19.7v-30h-13.1V62.7z"/>
	<path class="st0" d="M235.3,52.1c0-10.9-7.4-19.2-20.6-19.2h-18.6v49h13.1V70.6h4.9l6.8,11.2h14.2l-8.7-13.9
		C232.2,64.7,235.3,59.1,235.3,52.1z M214,60.1h-4.8V43.9h4.8c5.9,0,8.1,3.4,8.1,8.1C222.1,56.8,219.9,60.1,214,60.1z"/>
	<path class="st0" d="M306.8,32c-0.2-0.5-0.6-0.5-0.9,0l-23.8,49.8h12.8l1.8-4.2h18.4l1.9,4.2h13.5L306.8,32z M300.9,67.8l4.9-11.4
		l5,11.4H300.9z"/>
	<path class="st0" d="M30.8,0C17.7,0,5.6,7.6,0,19.4l12.6,6C16,18.5,23.1,14,30.8,14c7.7,0,14.8,4.5,18.1,11.5l12.6-6
		C55.9,7.6,43.8,0,30.8,0z"/>
</g>
</svg>