<!-- Generator: Adobe Illustrator 23.0.0, SVG Export Plug-In  -->
<svg version="1.1" xmlns="http://www.w3.org/2000/svg" xmlns:xlink="http://www.w3.org/1999/xlink" x="0px" y="0px" width="210px"
	 height="109.4px" viewBox="0 0 210 109.4" style="enable-background:new 0 0 210 109.4;" xml:space="preserve">
<style type="text/css">
	.st0{fill:#FFFFFF;}
</style>
<defs>
</defs>
<g>
	<path class="st0" d="M133.7,8.2c0-2.2,0-4.3,0-6.4c1.6-0.1,3.1-0.2,4.7-0.2c4.9-0.2,9.7-0.4,14.6-0.7c5-0.2,10.1-0.5,15.1-0.7
		c2.2-0.1,4.5-0.2,6.7-0.2c1.9,0,3.5,0.9,5.2,1.5c7.2,2.7,14.4,5.3,21.6,8.1c4.2,1.6,7.1,4.6,8.2,9.2c0.2,0.7,0.2,1.4,0.2,2.2
		c-0.1,4.1-0.2,8.1-0.3,12.2c-0.2,6.2-0.3,12.4-0.5,18.7c-0.1,5.6-0.3,11.2-0.5,16.8c-0.2,6.2-0.4,12.3-0.5,18.5
		c-0.1,3.5-0.7,6.9-2.7,9.8c-2,2.8-4.6,4.7-7.9,5.6c-7.4,2.1-14.9,4.3-22.3,6.4c-1.4,0.4-2.8,0.5-4.3,0.4c-4.3-0.3-8.6-0.5-13-0.8
		c-3.3-0.2-6.7-0.4-10-0.6c-3.8-0.2-7.5-0.5-11.3-0.6c-4.8-0.3-9.6-0.5-14.4-0.7c-5.3-0.3-10.6-0.6-15.9-0.8
		c-3.6-0.2-7.1-0.4-10.7-0.6c-4.5-0.2-9-0.5-13.5-0.7c-2-0.1-3.9-0.1-5.9-0.5c-4.5-0.9-7.6-4.9-7.9-9.5c-0.1-2.2-0.4-4.3-0.7-6.5
		c-0.3-3-0.7-6-1-8.9c-0.4-3.4-0.8-6.7-1.1-10.1c-0.4-3.3-0.7-6.7-1.1-10c-0.4-3.3-0.7-6.6-1.1-9.9c0-0.2-0.1-0.4-0.1-0.6
		c-0.3,0.1-0.6,0.1-0.9,0.2c-1.1,0.1-2.1-0.6-2.3-1.7c-0.2-1.1,0.4-2.2,1.5-2.5c0.6-0.2,1.2-0.3,1.8-0.4c0.2-1.5,0.5-3.1,0.7-4.6
		c0.2-1.5,0.4-3.1,0.6-4.7c-0.4,0-0.8-0.1-1.1-0.1c-4.2-0.1-8.4-0.2-12.6-0.2c-5.1-0.1-10.1-0.2-15.2-0.3c-1.3,0-2.3-1-2.2-2.2
		c0-1.2,1-2.1,2.3-2c6.5,0.1,12.9,0.2,19.4,0.3c3.2,0.1,6.3,0.1,9.5,0.2c0.2,0,0.3,0,0.5,0c0.4-2.8,0.8-5.6,1.2-8.5
		c-1.3-0.3-2.6-0.7-3.9-1c-2.8-0.7-5.5-1.4-8.3-2.1c-1.3-0.3-2-1.4-1.8-2.6c0.3-1.2,1.4-1.9,2.8-1.5c3.7,0.9,7.4,1.9,11.1,2.8
		c0.2,0.1,0.5,0.1,0.8,0.2c0.1-1.1,0.2-2.1,0.4-3.2c0.7-4.6,4.4-8.2,9.1-8.6c4.8-0.4,9.6-0.7,14.4-1.1c4-0.3,8-0.6,12-0.9
		c1.3-0.1,2.6-0.3,4-0.3c1.3,0,2.5,0.3,3.8,0.5c4.8,0.8,9.6,1.6,14.3,2.5c2.7,0.5,5.4,0.9,8.1,1.4C133.2,8.1,133.4,8.1,133.7,8.2z
		 M138,103.1c0.7,0,1.4,0.1,2,0.1c2.5,0.1,5,0.3,7.5,0.4c3.7,0.2,7.4,0.4,11.1,0.7c1.7,0.1,3.3,0.2,5,0.3c2.8,0.2,5.6,0.4,8.5,0.5
		c3,0.1,5.5-2.2,5.9-5.2c0.1-0.9,0.2-1.8,0.2-2.8c0.2-2,0.4-3.9,0.6-5.9c0.2-2.5,0.5-5,0.8-7.6c0.2-2.4,0.5-4.8,0.7-7.2
		c0.3-3,0.6-5.9,0.9-8.9c0.2-2.4,0.5-4.8,0.7-7.2c0.3-2.5,0.5-5.1,0.8-7.6c0.2-2,0.4-4,0.6-6c0.1-1.1,0.1-2.2,0.1-3.2
		c-0.1-1.8-0.4-3.6-0.5-5.4c-0.2-2.4-0.5-4.7-0.7-7.1c-0.2-2.4-0.5-4.7-0.7-7.1c-0.2-2.3-0.5-4.7-0.7-7c-0.2-2.3-0.6-4.7-0.7-7
		c-0.2-2.8-2.2-5.4-5-5.7c-1.6-0.2-3.3,0-4.9,0c-3.3,0.1-6.6,0.3-9.8,0.5c-2.7,0.1-5.3,0.2-8,0.3c-3.3,0.1-6.7,0.3-10,0.5
		c-1.4,0.1-2.7,0.1-4.1,0.2C138,38.3,138,70.6,138,103.1z M67.6,47.5c0.1,1.1,0.2,2.1,0.3,3.1c0.3,2.6,0.6,5.2,0.9,7.7
		c0.3,2.5,0.6,5,0.8,7.5c0.2,2.2,0.5,4.4,0.7,6.6c0.3,2.5,0.6,5,0.9,7.5c0.3,2.6,0.6,5.2,0.9,7.8c0.2,2.3,0.5,4.6,0.7,6.9
		c0.2,2.7,2.7,5.2,5.3,5.4c1.7,0.1,3.4,0.2,5.2,0.3c3.9,0.2,7.8,0.4,11.8,0.7c1.9,0.1,3.8,0.2,5.7,0.3c1.4,0.1,2.8,0.1,4.2,0.2
		c0-20.8,0-41.5,0-62.3C92.5,41.9,80.1,44.7,67.6,47.5z M204.1,81.5c0.5-18.6,1-37.1,1.5-55.6c-6.7-1.1-13.4-2.2-20.1-3.3
		c0.1,1.2,0.2,2.2,0.3,3.3c0.2,2.3,0.5,4.7,0.7,7c0.2,2.4,0.5,4.7,0.7,7.1c0.2,1.7,0.4,3.3,0.4,5c0,1.5-0.3,3-0.4,4.5
		c-0.2,2.5-0.5,5-0.7,7.4c-0.2,2.4-0.5,4.8-0.7,7.2c-0.3,2.9-0.6,5.8-0.9,8.7c-0.3,2.5-0.5,5-0.8,7.6c-0.1,1-0.2,2.1-0.3,3.2
		C190.7,83,197.4,82.3,204.1,81.5z M133.7,86.9c0-0.3,0-0.6,0-0.9c0-24.2,0-48.5,0-72.7c0-0.2,0.1-0.3,0-0.5
		c-0.1-0.2-0.3-0.5-0.4-0.5c-2.3-0.4-4.7-0.8-7-1.2c-4.1-0.7-8.1-1.4-12.2-2.1c-1.6-0.3-3.1-0.5-4.8-0.8c0,0.3,0,0.6,0,0.8
		c0,2.4,0,4.8,0,7.2c0,3.8,0,7.7,0,11.5c0,0.2,0.1,0.6,0.2,0.6c1.2,0.3,2.4,0.6,3.6,0.9c0-0.3,0.1-0.5,0.1-0.7c0.4-2.8,1-5.6,2-8.2
		c0.8-2.1,1.8-4.1,3.6-5.7c2.1-1.8,4.7-1.8,6.9,0c1.6,1.4,2.6,3.3,3.4,5.2c1.4,3.7,2.1,7.5,2.4,11.4c0.5,5.8,0.3,11.5-1,17.1
		c-0.6,2.9-1.5,5.8-3.2,8.3c-0.9,1.3-2,2.4-3.5,2.9c-1.4,0.5-2.7,0.3-4-0.4c-3.2,9.2-6.4,18.4-9.6,27.6
		C118,86.9,125.8,86.9,133.7,86.9z M105,27.3c0-6.5,0-12.9,0-19.3c-0.9,0.1-1.8,0.2-2.7,0.2C98,8.6,93.7,8.9,89.4,9.2
		c-4,0.3-8,0.6-12,0.8c-3,0.2-5.2,2.1-5.7,5c-0.2,1.2-0.3,2.4-0.4,3.7C82.5,21.6,93.7,24.4,105,27.3z M116.8,36.5
		c0.1,2,0.2,3.9,0.4,5.8c0.2,3.1,0.8,6.1,1.9,9c0.5,1.3,1.3,2.6,2,3.7c0.6,0.9,1.4,0.9,2.1,0c0.5-0.6,0.9-1.2,1.2-1.9
		c1.8-3.7,2.4-7.7,2.8-11.8c0.4-4.3,0.3-8.5-0.4-12.7c-0.4-2.8-1-5.6-2.3-8.1c-0.4-0.9-1.1-1.7-1.7-2.5c-0.5-0.6-1-0.5-1.5,0
		c-0.4,0.5-0.8,1-1.2,1.5c-1.2,2-1.8,4.1-2.3,6.3c-0.3,1.5-0.5,3-0.8,4.6c1.4,0.3,2.6,0.6,3.8,1c1.1,0.3,1.8,1.2,1.8,2.2
		c-0.1,1.1-0.9,1.9-2,2.1C119.5,35.9,118.3,36.2,116.8,36.5z M133.7,103c0-4,0-7.9,0-11.7c-8.2,0-16.3,0-24.4,0c0,3.5,0,6.9,0,10.4
		C117.4,102.1,125.5,102.6,133.7,103z M204,85.8c-1,0.1-2,0.2-3,0.3c-2.7,0.3-5.3,0.6-8,0.9c-2.6,0.3-5.2,0.6-7.8,0.9
		c-0.5,0.1-1.2,0-1.5,0.3c-0.3,0.3-0.2,1-0.3,1.6c0,0.2-0.1,0.3-0.1,0.5c-0.4,4.1-0.8,8.3-1.2,12.4c0.1,0,0.4-0.1,0.6-0.2
		c4.2-1.2,8.4-2.4,12.7-3.6c1.6-0.5,3.1-0.8,4.5-1.9C203.4,94,204.3,90.2,204,85.8z M205.7,21.7c0-0.3,0-0.5,0-0.7
		c0-0.4,0-0.8-0.1-1.1c-0.7-3.1-2.7-5.1-5.5-6.3c-4.4-1.7-8.8-3.3-13.3-5c-1-0.4-2-0.7-3-1.1c0.1,1.4,0.3,2.6,0.4,3.9
		c0.2,2.2,0.4,4.3,0.7,6.5c0,0.2,0.3,0.4,0.4,0.4c1.6,0.3,3.1,0.5,4.7,0.8c3.4,0.6,6.8,1.1,10.2,1.7
		C202.1,21.1,203.9,21.4,205.7,21.7z M112.6,37.5c-0.9,0.2-1.7,0.4-2.6,0.5c-0.6,0.1-0.8,0.3-0.8,0.9c0,12.2,0,24.4,0,36.6
		c0,0.2,0,0.4,0,0.8c0.1-0.2,0.1-0.2,0.2-0.3c2.3-6.6,4.6-13.3,6.9-19.9c0.1-0.2,0-0.4,0-0.6c-1.9-3.7-2.7-7.7-3.2-11.8
		C112.9,41.6,112.8,39.6,112.6,37.5z M67.8,43.1c11.5-2.6,23-5.1,34.4-7.6c0,0,0-0.1,0-0.1c-11.1-0.2-22.1-0.4-33.2-0.6
		C68.6,37.5,68.2,40.2,67.8,43.1z M102,31.1c0,0,0-0.1,0-0.1c-10.4-2.7-20.9-5.3-31.4-8c-0.4,2.5-0.7,5-1.1,7.5
		C80.4,30.7,91.2,30.9,102,31.1z"/>
	<path class="st0" d="M15.4,54.8c0-5.2,4.2-9.4,9.4-9.4c5.2,0,9.3,4.2,9.4,9.4c0,5.1-4.2,9.3-9.5,9.3C19.6,64.2,15.4,59.9,15.4,54.8
		z M29.9,54.8c0-2.9-2.3-5.2-5.3-5.1c-2.7,0-5,2.4-5,5.1c0,2.8,2.3,5.1,5.1,5.1C27.6,59.9,29.9,57.6,29.9,54.8z"/>
	<path class="st0" d="M27.1,2.2c4.1,0,7.3,3.5,7.2,7.5c-0.1,4-3.5,7.2-7.5,7.1c-4-0.1-7.2-3.4-7.1-7.4C19.8,5.4,23.1,2.2,27.1,2.2z
		 M30.1,9.6c0-1.7-1.3-3.1-3.1-3.1c-1.6,0-3.1,1.4-3.1,3.1c0,1.7,1.4,3.1,3.1,3.1C28.7,12.6,30.1,11.3,30.1,9.6z"/>
	<path class="st0" d="M0,31.4c0-4,3.2-7.3,7.3-7.3c3.9,0,7.2,3.3,7.2,7.2c0,4-3.2,7.3-7.3,7.3C3.3,38.7,0,35.5,0,31.4z M10.3,31.4
		c0-1.7-1.3-3-3-3c-1.7,0-3,1.4-3,3.1c0,1.7,1.4,3,3.1,3C8.9,34.5,10.3,33.1,10.3,31.4z"/>
	<path class="st0" d="M19.6,29.5c0.7,0,1.5,0,2,0.6c0.6,0.7,0.9,1.4,0.5,2.3c-0.3,0.8-1,1.3-1.9,1.4c-0.5,0-0.9,0-1.4,0
		c-1.3-0.1-2.1-1-2-2.2c0-1.2,0.9-2,2.2-2C19.2,29.5,19.4,29.5,19.6,29.5z"/>
	<path class="st0" d="M49.7,14.8c0,1.3-1.1,2.3-2.3,2.1c-0.6-0.1-1.2-0.2-1.7-0.4c-1.1-0.4-1.6-1.5-1.3-2.6c0.3-1.1,1.4-1.7,2.5-1.5
		c0.5,0.1,0.9,0.2,1.3,0.3C49.1,13.1,49.7,13.9,49.7,14.8z"/>
	<path class="st0" d="M38.7,10.3c0.4,0.1,1.1,0.3,1.8,0.5c1,0.4,1.4,1.6,1,2.6c-0.3,1-1.4,1.6-2.4,1.4c-0.5-0.1-0.9-0.2-1.4-0.4
		c-1-0.3-1.6-1.4-1.4-2.4C36.4,11,37.3,10.3,38.7,10.3z"/>
	<path class="st0" d="M27.9,29.7c1.1-0.1,2.1,0.2,2.6,1.3c0.5,1.3-0.3,2.7-1.7,2.9c-0.5,0.1-1.1,0-1.6,0c-1.2-0.1-2-1.1-2-2.3
		c0.1-1.1,1-1.9,2.2-1.9C27.6,29.7,27.8,29.7,27.9,29.7z"/>
	<path class="st0" d="M57.3,48.1c0,0,0,0.1,0,0.1c-0.1,1.3-1.2,2.1-3.1,2.2c-1.1,0.1-2.1-0.7-2.2-1.9c-0.1-1,0.6-2,1.6-2.3
		c0.4-0.1,0.8-0.2,1.2-0.3C56.2,45.7,57.3,46.7,57.3,48.1z"/>
	<path class="st0" d="M38,54c-1.4,0-2.3-0.7-2.4-1.8c-0.2-1,0.5-2,1.5-2.3c0.5-0.2,1-0.2,1.5-0.3c1.1-0.2,2.1,0.5,2.4,1.5
		c0.3,1-0.2,2.1-1.2,2.5C39.1,53.8,38.4,53.9,38,54z"/>
	<path class="st0" d="M47,47.7c1.1,0.1,1.9,0.8,2.1,1.8c0.2,1.1-0.4,2.1-1.4,2.4c-0.5,0.1-1,0.2-1.5,0.3c-1,0.2-2.1-0.5-2.4-1.5
		c-0.3-1,0.2-2.2,1.2-2.6C45.7,47.9,46.4,47.8,47,47.7z"/>
</g>
</svg>